<svg width="48" height="42" viewBox="0 0 48 42" fill="none" xmlns="http://www.w3.org/2000/svg">
<path d="M24 39.8834L11.9647 40.7271L0 39.8834V32.5826C0 27.4716 4.14328 23.3284 9.25425 23.3284H14.7457C19.8566 23.3284 23.9999 27.4716 23.9999 32.5826L24.8437 36.1641L24 39.8834Z" fill="#DC4955"/>
<path d="M0.484312 41.627H4.014L4.74056 40.7833L5.46712 41.627H18.5328L19.2593 40.7833L19.9858 41.627H24L24.8438 40.7553L24 39.8835H0V41.1427C0 41.2712 0.0510256 41.3944 0.141852 41.4852C0.232678 41.576 0.355865 41.627 0.484312 41.627Z" fill="#D82F3C"/>
<path d="M11.9996 27.008C15.1646 27.008 15.0884 23.4685 15.0843 23.3346C14.9757 23.3309 14.8668 23.3282 14.7572 23.3282H9.26582C9.14826 23.3282 9.03136 23.3312 8.91482 23.3356C8.91042 23.4876 8.8432 27.008 11.9996 27.008Z" fill="#E2AE84"/>
<path d="M5.46875 33.7263V39.8834L4.74219 40.7271L4.01562 39.8834V33.7263C4.0157 33.5337 4.09227 33.3489 4.22852 33.2127C4.36476 33.0765 4.54952 32.9999 4.74219 32.9999C4.93486 32.9999 5.11964 33.0764 5.25588 33.2127C5.39213 33.3489 5.4687 33.5337 5.46875 33.7263ZM19.9873 33.7263V39.8834L19.2609 40.7271L18.5343 39.8834V33.7263C18.5365 33.5351 18.614 33.3524 18.75 33.2179C18.886 33.0835 19.0696 33.008 19.2608 33.008C19.4521 33.008 19.6356 33.0835 19.7717 33.2179C19.9077 33.3524 19.9852 33.5351 19.9873 33.7263Z" fill="#C42D41"/>
<path d="M4.01562 39.8833H5.46866V41.627H4.01562V39.8833ZM18.5342 39.8833H19.9873V41.627H18.5342V39.8833Z" fill="#B72D47"/>
<path d="M2.07469 13.1494C-0.255837 7.83589 -0.69543 2.77095 4.49007 1.20701C16.3853 -2.38043 16.9936 3.17182 16.9936 3.17182C16.9936 3.17182 25.4189 3.54467 22.2308 13.9512L2.07469 13.1494Z" fill="#26457D"/>
<path d="M4.23066 11.9219C3.31425 11.9219 2.51081 12.4149 2.07422 13.1493C2.24213 13.5283 2.41584 13.9047 2.59528 14.2784L4.48959 14.338V11.9352C4.40356 11.9263 4.31714 11.9219 4.23066 11.9219ZM21.9214 14.887C22.0309 14.5773 22.1339 14.2653 22.2303 13.9512C22.0081 12.7955 20.9911 11.9219 19.7706 11.9219C19.6831 11.9219 19.5968 11.9265 19.5116 11.9352V14.8111L21.9214 14.887Z" fill="#21386B"/>
<path d="M3.96537 17.6534L4.49375 16.9171L5.186 16.4734L4.49 13.6788C4.40397 13.67 4.31755 13.6656 4.23106 13.6655C3.15453 13.6655 2.23681 14.3448 1.88281 15.2982C1.88272 16.248 2.88884 17.6534 3.96537 17.6534Z" fill="#E2AE84"/>
<path d="M4.231 16.9309C3.15447 16.9309 2.23675 16.2516 1.88275 15.2982C1.77918 15.5772 1.72629 15.8724 1.72656 16.17C1.72656 17.5532 2.84781 18.6744 4.231 18.6744C4.40594 18.6744 4.57675 18.6563 4.74156 18.6222L5.18584 17.5657L4.49359 16.917C4.40734 16.9261 4.31969 16.9309 4.231 16.9309Z" fill="#D7A379"/>
<path d="M20.037 17.6534L19.5087 16.9171L18.8164 16.4734L19.5124 13.6788C19.5975 13.6701 19.684 13.6655 19.7713 13.6655C20.8479 13.6655 21.7656 14.3448 22.1196 15.2982C22.1196 16.248 21.1136 17.6534 20.037 17.6534Z" fill="#E2AE84"/>
<path d="M19.7712 16.9309C20.8478 16.9309 21.7655 16.2516 22.1195 15.2982C22.2231 15.5772 22.276 15.8724 22.2757 16.17C22.2757 17.5532 21.1544 18.6744 19.7712 18.6744C19.5962 18.6744 19.4255 18.6563 19.2607 18.6222L18.8164 17.5657L19.5087 16.917C19.5949 16.9261 19.6826 16.9309 19.7712 16.9309Z" fill="#D7A379"/>
<path d="M11.9992 23.3002C17.5242 23.3002 19.5101 19.0938 19.5101 14.9455V11.9806C19.51 11.8951 19.4872 11.8112 19.4441 11.7374C19.401 11.6636 19.3391 11.6025 19.2648 11.5603C17.4482 10.5217 16.1601 8.12848 15.6441 7.03367C15.5123 6.75411 15.1539 6.66786 14.9105 6.85826C10.4724 10.3297 6.34931 10.6453 4.97269 10.643C4.90906 10.6428 4.84603 10.6553 4.78723 10.6796C4.72842 10.7039 4.67498 10.7395 4.62998 10.7845C4.58498 10.8295 4.5493 10.8829 4.52498 10.9417C4.50067 11.0005 4.4882 11.0635 4.48828 11.1272V14.9456C4.48819 19.0938 6.78984 23.3002 11.9992 23.3002Z" fill="#F0C69E"/>
<path d="M11.9993 22.4565C7.85109 22.4565 4.48828 19.0937 4.48828 14.9455V16.6892C4.48828 20.8374 7.85109 24.2001 11.9993 24.2001C16.1474 24.2001 19.5102 20.8374 19.5102 16.6892V14.9455C19.5102 19.0937 16.1474 22.4565 11.9993 22.4565Z" fill="#E6BA94"/>
<path d="M11.9629 19.3626C12.6865 20.7505 14.2502 20.6769 14.9865 20.5535C15.1037 20.5335 15.2094 20.471 15.2832 20.3778C15.357 20.2846 15.3937 20.1674 15.3863 20.0487C15.3308 19.1718 14.8799 17.2168 11.9632 17.2168C9.04645 17.2168 8.5956 19.1718 8.54001 20.0487C8.53256 20.1674 8.56928 20.2846 8.64308 20.3778C8.71689 20.471 8.82256 20.5335 8.93976 20.5535C9.67616 20.6769 11.2398 20.7505 11.9634 19.3626H11.9629ZM47.694 23.2846C47.1195 22.968 45.962 22.0738 46.2983 20.1218C48.7735 5.75531 42.5456 0.430969 35.9985 0.430969C29.4516 0.430969 23.2236 5.75531 25.6988 20.1218C26.0351 22.0738 24.8776 22.968 24.303 23.2846C24.2104 23.3357 24.137 23.4158 24.094 23.5125C24.0511 23.6092 24.0409 23.7173 24.0651 23.8204C24.1634 24.2474 24.4022 24.9612 24.9703 25.653C24.9704 25.6528 24.9705 25.6525 24.9707 25.6523C24.9703 25.653 47.0264 25.6523 47.0264 25.6523L47.0268 25.653C47.5949 24.9612 47.8336 24.2474 47.932 23.8204C47.9561 23.7173 47.946 23.6092 47.903 23.5125C47.8601 23.4158 47.7867 23.3358 47.694 23.2846Z" fill="#26457D"/>
<path d="M39.762 22.4565H32.239C29.3631 22.4565 26.775 23.6882 24.9727 25.6525C25.3577 26.1216 25.8932 26.5807 26.6402 26.9333H45.3608C46.1078 26.5806 46.6433 26.1216 47.0284 25.6525C45.2261 23.6882 42.638 22.4565 39.762 22.4565Z" fill="#21386B"/>
<path d="M48 39.8834L35.988 40.7271L24 39.8834V32.5826C24 27.4716 28.1433 23.3284 33.2543 23.3284H38.7457C43.8566 23.3284 47.9999 27.4716 47.9999 32.5826V39.8834H48Z" fill="#B3E59F"/>
<path d="M24 41.627H28.0142L28.7407 40.7833L29.4672 41.627H42.5329L43.2594 40.7833L43.9859 41.627H47.5156C47.644 41.627 47.7672 41.576 47.8581 41.4852C47.9489 41.3944 47.9999 41.2712 47.9999 41.1427V39.8835H24V41.627Z" fill="#95D6A4"/>
<path d="M35.9878 27.008C39.1528 27.008 39.0766 23.4685 39.0726 23.3346C38.9639 23.3309 38.8551 23.3282 38.7455 23.3282H33.2541C33.1365 23.3282 33.0196 23.3312 32.9031 23.3356C32.8988 23.4876 32.8316 27.008 35.9878 27.008Z" fill="#E2AE84"/>
<path d="M29.4687 33.7263V39.8834L28.7421 40.7271L28.0156 39.8834V33.7263C28.0157 33.5337 28.0923 33.349 28.2285 33.2127C28.3647 33.0765 28.5494 33 28.7421 32.9999C28.9348 32.9999 29.1195 33.0764 29.2558 33.2127C29.392 33.3489 29.4686 33.5337 29.4687 33.7263ZM43.9873 33.7263V39.8834L43.2608 40.7271L42.5342 39.8834V33.7263C42.5343 33.5337 42.6109 33.3489 42.7471 33.2127C42.8834 33.0765 43.0681 32.9999 43.2608 32.9999C43.4534 32.9999 43.6382 33.0765 43.7744 33.2127C43.9106 33.3489 43.9872 33.5337 43.9873 33.7263Z" fill="#78C2A4"/>
<path d="M28.0156 39.8833H29.4687V41.627H28.0156V39.8833ZM42.5342 39.8833H43.9873V41.627H42.5342V39.8833Z" fill="#66B394"/>
<path d="M35.9993 23.3002C41.7563 23.3002 43.5102 19.0938 43.5102 14.9455V13.1152C43.51 13.0253 43.4849 12.9372 43.4375 12.8608C43.3901 12.7844 43.3224 12.7227 43.242 12.6826C41.003 11.5579 39.5917 9.08444 38.9894 7.82172C38.8337 7.49509 38.3892 7.44784 38.1687 7.73472C35.3295 11.4272 30.3137 12.6184 28.8806 12.8916C28.7701 12.9128 28.6704 12.9719 28.5988 13.0587C28.5272 13.1455 28.4881 13.2546 28.4883 13.3671V14.9456C28.4883 19.0937 30.211 23.3002 35.9993 23.3002Z" fill="#F0C69E"/>
<path d="M35.9993 22.4565C31.8511 22.4565 28.4883 19.0937 28.4883 14.9455V16.6892C28.4883 20.8374 31.8511 24.2001 35.9993 24.2001C40.1474 24.2001 43.5102 20.8374 43.5102 16.6892V14.9455C43.5102 19.0937 40.1474 22.4565 35.9993 22.4565Z" fill="#E6BA94"/>
<path d="M8.31456 16.7805C8.50781 16.7805 8.69314 16.7037 8.82978 16.5671C8.96642 16.4304 9.04319 16.2451 9.04319 16.0519V14.3631C9.04319 14.1699 8.96642 13.9846 8.82978 13.8479C8.69314 13.7113 8.50781 13.6345 8.31456 13.6345C8.12132 13.6345 7.93599 13.7113 7.79935 13.8479C7.6627 13.9846 7.58594 14.1699 7.58594 14.3631V16.0519C7.58594 16.2451 7.6627 16.4304 7.79935 16.5671C7.93599 16.7037 8.12132 16.7805 8.31456 16.7805ZM15.6148 16.7805C15.808 16.7805 15.9934 16.7037 16.13 16.5671C16.2666 16.4304 16.3434 16.2451 16.3434 16.0519V14.3631C16.3434 14.1699 16.2666 13.9846 16.13 13.8479C15.9934 13.7113 15.808 13.6345 15.6148 13.6345C15.4215 13.6345 15.2362 13.7113 15.0996 13.8479C14.9629 13.9846 14.8862 14.1699 14.8862 14.3631V16.0519C14.8862 16.2451 14.9629 16.4304 15.0996 16.5671C15.2362 16.7037 15.4215 16.7805 15.6148 16.7805ZM32.3843 13.6345C32.2886 13.6345 32.1939 13.6533 32.1055 13.69C32.0171 13.7266 31.9367 13.7802 31.8691 13.8479C31.8014 13.9156 31.7477 13.9959 31.7111 14.0843C31.6745 14.1727 31.6557 14.2675 31.6557 14.3631V16.0519C31.6557 16.4543 31.9818 16.7805 32.3843 16.7805C32.7868 16.7805 33.1129 16.4543 33.1129 16.0519V14.3631C33.113 14.2675 33.0941 14.1727 33.0575 14.0843C33.0209 13.9959 32.9672 13.9156 32.8996 13.8479C32.8319 13.7802 32.7516 13.7266 32.6632 13.69C32.5748 13.6533 32.48 13.6345 32.3843 13.6345ZM39.6845 16.7805C39.7802 16.7805 39.875 16.7617 39.9634 16.7251C40.0518 16.6884 40.1321 16.6348 40.1998 16.5671C40.2674 16.4994 40.3211 16.4191 40.3577 16.3307C40.3943 16.2423 40.4132 16.1476 40.4132 16.0519V14.3631C40.4132 13.9607 40.087 13.6345 39.6845 13.6345C39.2821 13.6345 38.9559 13.9607 38.9559 14.3631V16.0519C38.9559 16.1476 38.9747 16.2423 39.0114 16.3307C39.048 16.4191 39.1016 16.4994 39.1693 16.5671C39.237 16.6348 39.3173 16.6884 39.4057 16.7251C39.4941 16.7617 39.5888 16.7805 39.6845 16.7805Z" fill="#5E6B75"/>
<path d="M38.3375 19.3663C38.7466 18.4629 37.4486 17.86 37.0174 18.7442C36.9949 18.7898 36.7761 19.1889 36.0343 19.1889C35.2924 19.1889 35.0736 18.7898 35.0511 18.7442C34.62 17.86 33.322 18.4629 33.731 19.3663C33.9579 19.8637 34.6729 20.6488 36.0343 20.6488C37.3957 20.6487 38.1106 19.8636 38.3375 19.3663Z" fill="#DC4955"/>
</svg>
