<svg width="48" height="48" viewBox="0 0 48 48" fill="none" xmlns="http://www.w3.org/2000/svg">
<path d="M44.9765 3.98486C44.7407 3.98487 44.5144 4.0775 44.3462 4.24281C44.1781 4.40812 44.0816 4.63287 44.0776 4.86863L43.7539 23.9557H46.1989L45.8754 4.86863C45.8714 4.63287 45.7749 4.40812 45.6068 4.24281C45.4386 4.0775 45.2123 3.98487 44.9765 3.98486Z" fill="#D3DBEA"/>
<path d="M40.5898 27.1467C41.237 25.9603 41.9667 24.8209 42.7737 23.7369C42.9759 23.4701 43.2327 23.2495 43.5268 23.0898C43.821 22.9301 44.1458 22.835 44.4797 22.8107C44.8135 22.7864 45.1487 22.8336 45.4629 22.9491C45.7771 23.0645 46.063 23.2456 46.3017 23.4803C46.4874 23.6626 46.6666 23.8513 46.839 24.0462C47.1868 24.4365 47.3956 24.931 47.433 25.4525C47.4704 25.974 47.3341 26.4932 47.0456 26.9291L44.4945 30.7608C44.4945 30.7608 41.7584 29.4191 40.5898 27.1467Z" fill="#FFCAC0"/>
<path d="M18.4462 46.5882H21.5416C23.0121 46.2125 24.5534 46.2125 26.0238 46.5882H29.1193L29.9233 42.7045H17.6875L18.4462 46.5882Z" fill="#3E3E59"/>
<path d="M21.543 43.3369H26.0252V46.5882H21.543V43.3369Z" fill="#FFB655"/>
<path d="M19.2084 20.5662H28.3593C28.3593 20.5662 29.7711 29.8866 29.7255 43.4367C29.7255 43.4367 24.6237 44.5429 17.7491 43.4367C17.7491 43.4373 16.711 33.4151 19.2084 20.5662Z" fill="white"/>
<path d="M29.7255 43.4373C29.7266 43.1229 29.7266 42.8118 29.7255 42.502C27.1256 42.6008 25.2964 42.3672 24.1051 42.1019C23.6036 41.9904 23.1598 41.7002 22.8565 41.2855C22.5533 40.8708 22.4112 40.3599 22.4569 39.8482L23.911 23.4785L22.16 20.5662H19.2084C16.711 33.4151 17.7491 43.4368 17.7491 43.4368C24.6237 44.5434 29.7255 43.4373 29.7255 43.4373Z" fill="#D3DBEA"/>
<path d="M28.3596 20.5662H19.2087C19.0727 21.2657 18.9471 21.9563 18.832 22.6379C18.9749 22.9001 20.0059 24.7341 21.4112 25.7438L23.7577 24L25.9742 25.7435C25.9742 25.7435 27.4127 25.0357 28.6781 23.0771C28.494 21.4536 28.3596 20.5662 28.3596 20.5662Z" fill="#D3DBEA"/>
<path d="M21.9683 33.0176L21.543 38.1658L23.7841 40.3674L26.0252 38.1658L25.1688 27.8C23.8838 29.1237 22.8281 30.884 21.9683 33.0176Z" fill="#719DE2"/>
<path d="M25.1692 27.8001L24.6425 21.4257H22.9265L21.9688 33.0177L25.1692 27.8001Z" fill="#6279CC"/>
<path d="M26.2866 19.1039H21.2791L19.207 20.5662C19.7887 21.8135 20.559 22.9639 21.4908 23.9767L23.7826 21.8301L26.0748 23.9767C27.0067 22.9639 27.777 21.8136 28.3587 20.5662L26.2866 19.1039Z" fill="white"/>
<path d="M21.2773 17.6753V19.1039L23.7808 21.8301L26.2842 19.1039V17.7719L21.2773 17.6753Z" fill="#FFCAC0"/>
<path d="M21.2773 17.6753C23.0005 18.4686 25.2153 18.4825 26.2842 17.7719V15.9225H21.2773V17.6753Z" fill="#EF9292"/>
<path d="M19.2071 20.5662C19.2071 20.5662 19.0738 24.2509 18.9143 29.2288C18.3338 31.5761 18.3354 34.1736 18.6813 36.9188C18.5872 40.2477 18.5015 43.6323 18.446 46.5882L12.9508 46.5857C12.9508 46.5857 11.9767 38.4528 12.9302 30.8966C13.0855 29.6617 13.2284 28.4424 13.3487 27.2764C13.4418 26.3702 13.7286 25.4946 14.1896 24.709C14.6507 23.9233 15.2752 23.2459 16.0209 22.7226C17.0596 21.994 18.2561 21.172 19.2071 20.5662Z" fill="#D37577"/>
<path d="M18.6798 36.9188C18.7222 35.4082 18.7671 33.9088 18.8112 32.4659L13.3853 31.8546L12.7881 31.9883C11.839 39.2152 10.5195 46.5846 10.5195 46.5846L13.0546 46.5858C13.292 46.586 13.5271 46.5393 13.7464 46.4485C13.9658 46.3578 14.1651 46.2247 14.333 46.0569C14.5009 45.8891 14.634 45.6898 14.7249 45.4705C14.8158 45.2512 14.8625 45.0162 14.8625 44.7788V38.92C15.8851 38.0164 15.8456 36.6412 15.8456 36.6412C16.8051 36.4967 18.0046 36.7439 18.6798 36.9188Z" fill="#9B454D"/>
<path d="M40.5925 27.1467L37.7679 31.3694L32.9123 24.4406C32.1783 23.3921 31.2582 22.4871 30.1976 21.7706C29.5902 21.3608 28.9774 20.9592 28.3594 20.5656C28.3594 20.5656 28.9256 36.2156 29.1205 46.5877H33.2127C33.2127 46.5877 33.0452 40.946 32.7103 34.6449L37.0419 38.1335C37.2514 38.3023 37.4939 38.4255 37.7537 38.4955C38.0136 38.5654 38.2851 38.5804 38.5511 38.5396C38.8171 38.4987 39.0716 38.403 39.2986 38.2583C39.5255 38.1137 39.7198 37.9234 39.8691 37.6995L44.4971 30.7602L40.5925 27.1467Z" fill="#D37577"/>
<path d="M0.558594 29.2475C0.558594 29.2475 7.64763 26.3798 10.5211 32.8252L2.68881 31.9512C2.68881 31.9512 2.0881 30.0395 0.558594 29.2475ZM20.4844 29.2475C20.4844 29.2475 13.3953 26.3798 10.5218 32.8252L18.8823 32.2475C18.8823 32.2475 18.9543 30.0395 20.4844 29.2475Z" fill="#FFE7C7"/>
<path d="M10.5212 32.8252C10.5212 32.8252 6.89296 29.5721 1.142 32.0457C1.00924 32.1032 0.896221 32.1983 0.816851 32.3192C0.737481 32.4402 0.695234 32.5817 0.695313 32.7264V35.0359C0.695175 35.1041 0.712535 35.1712 0.745734 35.2308C0.778932 35.2904 0.826859 35.3404 0.884931 35.3762C0.943003 35.412 1.00928 35.4322 1.07742 35.4351C1.14556 35.4379 1.21329 35.4232 1.27414 35.3924C2.6403 34.695 6.27263 33.2699 10.5212 35.092C14.7706 33.2699 18.4024 34.695 19.7683 35.3924C19.8291 35.4232 19.8968 35.4379 19.965 35.4351C20.0331 35.4322 20.0994 35.412 20.1575 35.3762C20.2155 35.3404 20.2635 35.2904 20.2967 35.2308C20.3299 35.1712 20.3472 35.1041 20.3471 35.0359V32.7264C20.3471 32.5817 20.3049 32.4402 20.2255 32.3192C20.1461 32.1983 20.033 32.1032 19.9003 32.0457C14.1503 29.5721 10.5212 32.8252 10.5212 32.8252Z" fill="#FFB655"/>
<path d="M8.10156 37.3007V44.0348C8.10153 44.7119 8.37048 45.3614 8.84926 45.8402C9.32804 46.3191 9.97744 46.5882 10.6546 46.5882C11.3318 46.5882 11.9812 46.3192 12.4601 45.8404C12.9389 45.3615 13.2079 44.7121 13.2079 44.0349V36.4352L8.10156 37.3007Z" fill="#D37577"/>
<path d="M8.81432 34.1461H12.2288C12.7897 34.1462 13.3276 34.369 13.7242 34.7657C14.1208 35.1623 14.3436 35.7003 14.3436 36.2612C14.3436 36.9664 14.0635 37.6428 13.5648 38.1414C13.0662 38.6401 12.3898 38.9202 11.6846 38.9202H9.35828C8.65305 38.9202 7.97671 38.6401 7.47804 38.1414C6.97937 37.6428 6.69922 36.9664 6.69922 36.2612C6.69922 35.7002 6.92206 35.1622 7.31872 34.7656C7.71538 34.3689 8.25336 34.1461 8.81432 34.1461Z" fill="#FFCAC0"/>
<path d="M17.8345 10.1123H19.2795V13.9703H17.8345C17.406 13.9703 16.995 13.8 16.692 13.497C16.389 13.194 16.2188 12.783 16.2188 12.3545V11.7281C16.2188 11.2996 16.389 10.8886 16.692 10.5856C16.995 10.2826 17.406 10.1123 17.8345 10.1123ZM29.2335 13.9703H27.7886V10.1123H29.2335C29.6621 10.1123 30.073 10.2826 30.376 10.5856C30.6791 10.8886 30.8493 11.2996 30.8493 11.7281V12.3545C30.8493 12.5667 30.8075 12.7768 30.7263 12.9728C30.6451 13.1689 30.5261 13.347 30.376 13.497C30.226 13.6471 30.0479 13.7661 29.8519 13.8473C29.6558 13.9285 29.4457 13.9703 29.2335 13.9703Z" fill="#EF9292"/>
<path d="M19.8195 3.59366C19.2389 3.51068 18.6468 3.58394 18.104 3.80591C17.5611 4.02787 17.0873 4.39051 16.7312 4.85648C15.5238 6.37088 15.0829 9.80655 19.2906 11.5906L28.4321 10.2164C28.957 10.2954 29.4878 10.3285 30.0185 10.3152C30.8665 10.2943 31.6727 9.35521 31.6691 8.50674C31.6524 7.98473 31.5192 7.47306 31.2793 7.00914C30.9955 6.41739 30.7988 5.78772 30.6951 5.13968C30.4748 3.7666 29.4871 1.41177 25.305 1.41177C21.009 1.41177 19.8195 3.59366 19.8195 3.59366Z" fill="#3E3E59"/>
<path d="M19.6318 14.7919C20.1642 15.5516 21.0718 16.3538 22.6191 16.8119C23.2378 17.0011 23.8907 17.0511 24.531 16.9583C25.1713 16.8656 25.7831 16.6324 26.3227 16.2754C27.2241 15.6587 27.9196 14.7856 28.3192 13.7691C28.5285 13.251 28.6347 12.697 28.6318 12.1382V10.4059C28.6316 10.2302 28.5828 10.0579 28.4909 9.90819C28.399 9.75844 28.2676 9.63699 28.111 9.55725C27.4096 9.19781 26.1331 8.33819 25.1241 6.51122C24.9264 6.14193 24.6182 5.84376 24.2425 5.65852C24.202 5.63913 24.1597 5.61983 24.1154 5.60063C21.641 4.52769 18.883 6.40153 18.883 9.09856V12.3355C18.8749 13.2117 19.1363 14.0692 19.6318 14.7919Z" fill="#FFCAC0"/>
<path d="M22.3066 11.1847C22.1756 11.1847 22.0499 11.1326 21.9572 11.04C21.8646 10.9473 21.8125 10.8216 21.8125 10.6906V10.2322C21.8125 10.1011 21.8646 9.97546 21.9572 9.88279C22.0499 9.79013 22.1756 9.73807 22.3066 9.73807C22.4377 9.73807 22.5633 9.79013 22.656 9.88279C22.7487 9.97546 22.8007 10.1011 22.8007 10.2322V10.6906C22.8007 10.8216 22.7487 10.9473 22.656 11.04C22.5633 11.1326 22.4377 11.1847 22.3066 11.1847ZM25.524 11.1847C25.393 11.1847 25.2673 11.1326 25.1746 11.04C25.082 10.9473 25.0299 10.8216 25.0299 10.6906V10.2322C25.0299 10.1011 25.082 9.97546 25.1746 9.88279C25.2673 9.79013 25.393 9.73807 25.524 9.73807C25.6551 9.73807 25.7808 9.79013 25.8734 9.88279C25.9661 9.97546 26.0181 10.1011 26.0181 10.2322V10.6906C26.0181 10.8216 25.9661 10.9473 25.8734 11.04C25.7808 11.1326 25.6551 11.1847 25.524 11.1847ZM23.9087 14.3445C22.7205 14.3445 22.1499 13.8113 21.9597 13.5822C21.8761 13.4813 21.8359 13.3513 21.8481 13.2208C21.8602 13.0903 21.9237 12.97 22.0246 12.8864C22.1255 12.8027 22.2555 12.7625 22.3859 12.7747C22.5164 12.7869 22.6367 12.8504 22.7204 12.9512C22.7769 13.0189 23.0975 13.3563 23.9087 13.3563C24.7199 13.3563 25.0406 13.0189 25.0968 12.9512C25.1383 12.9013 25.1891 12.86 25.2465 12.8297C25.3039 12.7995 25.3667 12.7808 25.4313 12.7748C25.4959 12.7688 25.5611 12.7755 25.6231 12.7947C25.6851 12.8139 25.7427 12.8451 25.7926 12.8865C25.8426 12.928 25.8838 12.9788 25.9141 13.0362C25.9444 13.0936 25.9631 13.1564 25.9691 13.221C25.9751 13.2856 25.9683 13.3508 25.9492 13.4128C25.93 13.4748 25.8988 13.5324 25.8573 13.5823C25.6673 13.8114 25.0968 14.3445 23.9087 14.3445Z" fill="#EF9292"/>
</svg>
