<svg width="430" height="132" viewBox="0 0 430 132" fill="none" xmlns="http://www.w3.org/2000/svg">
<g clip-path="url(#clip0_15605_2306)">
<mask id="mask0_15605_2306" style="mask-type:alpha" maskUnits="userSpaceOnUse" x="-320" y="-167" width="1040" height="692">
<g clip-path="url(#paint0_diamond_15605_2306_clip_path)"><g transform="matrix(0 0.376812 -0.876393 0 200 132.369)"><rect x="0" y="0" width="1043.4" height="593.953" fill="url(#paint0_diamond_15605_2306)" opacity="1" shape-rendering="crispEdges"/><rect x="0" y="0" width="1043.4" height="593.953" transform="scale(1 -1)" fill="url(#paint0_diamond_15605_2306)" opacity="1" shape-rendering="crispEdges"/><rect x="0" y="0" width="1043.4" height="593.953" transform="scale(-1 1)" fill="url(#paint0_diamond_15605_2306)" opacity="1" shape-rendering="crispEdges"/><rect x="0" y="0" width="1043.4" height="593.953" transform="scale(-1)" fill="url(#paint0_diamond_15605_2306)" opacity="1" shape-rendering="crispEdges"/></g></g>
</mask>
<g mask="url(#mask0_15605_2306)">
<g opacity="0.9">
<circle cx="134.097" cy="88.3931" r="0.690477" fill="white" fill-opacity="0.6"/>
<circle cx="13.4066" cy="38.739" r="0.76211" fill="white" fill-opacity="0.5"/>
<circle cx="70.1696" cy="31.5704" r="0.69691" fill="white" fill-opacity="0.5"/>
<circle cx="263.168" cy="90.1906" r="0.711451" fill="white" fill-opacity="0.6"/>
<circle cx="123.444" cy="103.196" r="0.693902" fill="white" fill-opacity="0.3"/>
<circle cx="373.828" cy="51.672" r="0.671636" fill="white" fill-opacity="0.5"/>
<circle cx="2.12376" cy="16.8032" r="0.729233" fill="white" fill-opacity="0.4"/>
<circle cx="228.811" cy="84.2495" r="0.689881" fill="white" fill-opacity="0.5"/>
<circle cx="206.937" cy="66.518" r="0.718168" fill="white" fill-opacity="0.6"/>
<circle cx="355.046" cy="105.11" r="0.831583" fill="white" fill-opacity="0.4"/>
<circle cx="78.5661" cy="76.0759" r="0.804401" fill="white" fill-opacity="0.4"/>
<circle cx="354.293" cy="14.9695" r="0.671462" fill="white" fill-opacity="0.6"/>
<circle cx="17.0553" cy="28.1817" r="0.859953" fill="white" fill-opacity="0.6"/>
<circle cx="243.773" cy="45.9322" r="0.85128" fill="white" fill-opacity="0.6"/>
<circle cx="349.077" cy="26.33" r="0.784446" fill="white" fill-opacity="0.3"/>
<circle cx="286.225" cy="63.5186" r="0.678364" fill="white" fill-opacity="0.4"/>
<circle cx="245.376" cy="72.9881" r="0.676482" fill="white" fill-opacity="0.6"/>
<circle cx="161.285" cy="4.29099" r="0.648472" fill="white" fill-opacity="0.4"/>
<circle cx="392.879" cy="93.809" r="0.777782" fill="white" fill-opacity="0.4"/>
<circle cx="326.602" cy="51.2132" r="0.804688" fill="white" fill-opacity="0.5"/>
<circle cx="120.596" cy="112.185" r="0.803196" fill="white" fill-opacity="0.5"/>
<circle cx="156.785" cy="45.372" r="0.883131" fill="white" fill-opacity="0.5"/>
<circle cx="172.614" cy="88.4297" r="0.727048" fill="white" fill-opacity="0.6"/>
<circle cx="103.97" cy="45.2437" r="0.754837" fill="white" fill-opacity="0.5"/>
<circle cx="414.608" cy="56.9328" r="0.604492" fill="white" fill-opacity="0.3"/>
<circle cx="27.4656" cy="89.5009" r="0.614002" fill="white" fill-opacity="0.4"/>
<circle cx="181.564" cy="19.2402" r="0.798039" fill="white" fill-opacity="0.6"/>
<circle cx="97.5514" cy="47.7056" r="0.848304" fill="white" fill-opacity="0.5"/>
<circle cx="289.736" cy="45.7188" r="0.637861" fill="white" fill-opacity="0.5"/>
<circle cx="180.302" cy="52.9041" r="0.719579" fill="white" fill-opacity="0.5"/>
<circle cx="267.432" cy="125.828" r="0.830232" fill="white" fill-opacity="0.4"/>
<circle cx="59.0005" cy="63.0218" r="0.773981" fill="white" fill-opacity="0.3"/>
<circle cx="121.203" cy="64.2526" r="0.820446" fill="white" fill-opacity="0.5"/>
<circle cx="53.0762" cy="97.9461" r="0.771508" fill="white" fill-opacity="0.3"/>
<circle cx="126.993" cy="89.579" r="0.692114" fill="white" fill-opacity="0.5"/>
</g>
<g opacity="0.1">
<g clip-path="url(#clip1_15605_2306)">
<path d="M0 253.334V-609.652" stroke="white" stroke-width="0.654481"/>
<path d="M41.8867 253.334V-609.652" stroke="white" stroke-width="0.654481"/>
<path d="M83.7734 253.334V-609.652" stroke="white" stroke-width="0.654481"/>
<path d="M125.66 253.334V-609.652" stroke="white" stroke-width="0.654481"/>
<path d="M167.547 253.334V-609.652" stroke="white" stroke-width="0.654481"/>
<path d="M209.434 253.334V-609.652" stroke="white" stroke-width="0.654481"/>
<path d="M251.32 253.334V-609.652" stroke="white" stroke-width="0.654481"/>
<path d="M293.207 253.334V-609.652" stroke="white" stroke-width="0.654481"/>
<path d="M335.094 253.334V-609.652" stroke="white" stroke-width="0.654481"/>
<path d="M376.98 253.334V-609.652" stroke="white" stroke-width="0.654481"/>
<path d="M418.867 253.334V-609.652" stroke="white" stroke-width="0.654481"/>
</g>
<g clip-path="url(#clip2_15605_2306)">
<path d="M0 127.674L430 127.674" stroke="white" stroke-width="0.654481"/>
<path d="M0 85.7874L430 85.7874" stroke="white" stroke-width="0.654481"/>
<path d="M0 43.9006L430 43.9006" stroke="white" stroke-width="0.654481"/>
<path d="M0 2.01385L430 2.01385" stroke="white" stroke-width="0.654481"/>
</g>
</g>
</g>
</g>
<defs>
<clipPath id="paint0_diamond_15605_2306_clip_path"><rect x="-320" y="-167" width="1040" height="692"/></clipPath><linearGradient id="paint0_diamond_15605_2306" x1="0" y1="0" x2="500" y2="500" gradientUnits="userSpaceOnUse">
<stop stop-color="white"/>
<stop offset="1" stop-color="#D9D9D9" stop-opacity="0"/>
</linearGradient>
<clipPath id="clip0_15605_2306">
<rect width="430" height="249" fill="white" transform="translate(0 -12)"/>
</clipPath>
<clipPath id="clip1_15605_2306">
<rect width="430" height="312.065" fill="white" transform="matrix(1 0 0 -1 0 253.334)"/>
</clipPath>
<clipPath id="clip2_15605_2306">
<rect width="430" height="312.065" fill="white" transform="matrix(1 0 0 -1 0 253.334)"/>
</clipPath>
</defs>
</svg>
