<svg width="46" height="46" viewBox="0 0 46 46" fill="none" xmlns="http://www.w3.org/2000/svg">
<rect width="46" height="46" fill="#D7DFE9"/>
<path d="M30.9062 25.875L27.102 22.0707C26.9672 21.9359 26.7844 21.8602 26.5937 21.8602C26.4031 21.8602 26.2203 21.9359 26.0855 22.0707L22.0707 26.0855C21.9359 26.2203 21.7531 26.296 21.5625 26.296C21.3719 26.296 21.1891 26.2203 21.0543 26.0855L19.1957 24.227C19.0609 24.0922 18.8781 24.0165 18.6875 24.0165C18.4969 24.0165 18.3141 24.0922 18.1793 24.227L15.0938 27.3125M15.8125 15.0938H30.1875C30.5845 15.0938 30.9062 15.4155 30.9062 15.8125V30.1875C30.9062 30.5845 30.5845 30.9062 30.1875 30.9062H15.8125C15.4155 30.9062 15.0938 30.5845 15.0938 30.1875V15.8125C15.0938 15.4155 15.4155 15.0938 15.8125 15.0938Z" stroke="#5E718D" stroke-width="1.5" stroke-linecap="round" stroke-linejoin="round"/>
<path d="M20.4844 20.8438C21.0798 20.8438 21.5625 20.3611 21.5625 19.7656C21.5625 19.1702 21.0798 18.6875 20.4844 18.6875C19.8889 18.6875 19.4062 19.1702 19.4062 19.7656C19.4062 20.3611 19.8889 20.8438 20.4844 20.8438Z" fill="#5E718D"/>
</svg>
