<svg width="48" height="48" viewBox="0 0 48 48" fill="none" xmlns="http://www.w3.org/2000/svg">
<g clip-path="url(#clip0_16234_4293)">
<path d="M38.2611 47.0963H9.73969L8.83594 46.1925V39.9243C8.83594 36.4908 10.3156 33.403 12.672 31.2635H35.3287C37.6852 33.403 39.1648 36.4908 39.1648 39.9243V46.1925L38.2611 47.0963Z" fill="#86DCFF"/>
<path d="M9.33806 48H14.121L14.8241 47.1563L15.5272 48H32.4735L33.1766 47.1563L33.8797 48H38.6627C38.7959 48 38.9236 47.9471 39.0177 47.8529C39.1119 47.7588 39.1648 47.6311 39.1648 47.4979V46.1925H8.83594V47.498C8.83596 47.6311 8.88888 47.7588 8.98304 47.853C9.0772 47.9471 9.20491 48 9.33806 48Z" fill="#56CAED"/>
<path d="M24.0022 38.1148L31.5623 29.7961L31.5123 28.947C30.2531 28.4831 28.8922 28.2296 27.472 28.2296H20.5324C19.1254 28.2296 17.7767 28.4785 16.5273 28.9341L16.5667 29.9333L24.0022 38.1148Z" fill="#E4EEF9"/>
<path d="M16.4921 28.9475C16.0898 29.0956 15.696 29.2657 15.3125 29.4571L15.6234 30.7937L24.002 39.9224L32.4658 30.6999L32.6915 29.4571C32.308 29.2657 31.9142 29.0955 31.5119 28.9475L24.3735 36.8022C24.3265 36.8539 24.2691 36.8953 24.2051 36.9236C24.1411 36.9519 24.0719 36.9666 24.002 36.9666C23.932 36.9666 23.8628 36.9519 23.7988 36.9236C23.7348 36.8953 23.6774 36.8539 23.6304 36.8022L16.4921 28.9475Z" fill="#D5E0F2"/>
<path d="M24.0008 38.1148L26.1278 35.7743L26.3141 34.6657L25.7601 31.6293L24.0008 30.7253L22.2415 31.6291L21.6875 34.6655L21.8738 35.7742L24.0008 38.1148Z" fill="#FF5876"/>
<path d="M25.7614 31.6292H22.2428L21.4754 28.2297H26.5289L25.7614 31.6292ZM26.5901 36.1709L26.3154 34.6656L24.3737 36.8022C24.3266 36.854 24.2692 36.8953 24.2052 36.9236C24.1412 36.9519 24.072 36.9666 24.0021 36.9666C23.9321 36.9666 23.8629 36.9519 23.7989 36.9236C23.7349 36.8953 23.6776 36.854 23.6305 36.8022L21.6888 34.6656L21.4141 36.1709L24.0021 40.8261L26.5901 36.1709Z" fill="#E6485D"/>
<path d="M15.3095 29.4572C14.7158 29.7539 14.1483 30.1005 13.6133 30.4932L13.7286 31.5239L22.8842 41.5983C23.4819 42.256 24.5159 42.256 25.1136 41.5983L34.3684 31.4148L34.3845 30.4932C33.8495 30.1005 33.282 29.7539 32.6883 29.4572L24.3459 38.6368C24.3019 38.6852 24.2484 38.7238 24.1887 38.7502C24.1289 38.7767 24.0643 38.7903 23.999 38.7903C23.9337 38.7903 23.8691 38.7767 23.8093 38.7502C23.7496 38.7238 23.6961 38.6852 23.6521 38.6368L15.3095 29.4572Z" fill="#FFCF4D"/>
<path d="M25.1149 40.6945C24.5173 41.3521 23.4832 41.3521 22.8856 40.6945L13.6147 30.4934C13.2873 30.7336 12.9726 30.9907 12.6719 31.2636L22.8856 42.502C23.4832 43.1596 24.5173 43.1596 25.1149 42.502L35.3285 31.2635C35.0278 30.9906 34.7131 30.7336 34.3857 30.4933L25.1149 40.6945Z" fill="#FFB629"/>
<path d="M15.4112 18.2704L14.5074 15.8377C14.3987 15.8265 14.2895 15.8209 14.1802 15.8209C12.7599 15.8209 11.5582 16.7564 11.1576 18.0447C11.0651 18.342 11.1532 21.247 14.1802 21.247L14.5316 20.3233L15.4112 18.2704Z" fill="#FFC4AD"/>
<path d="M14.1805 20.3431C12.7467 20.3431 11.5363 19.3894 11.1473 18.082C11.06 18.3753 11.0156 18.6797 11.0156 18.9857C11.0156 20.7336 12.4326 22.1506 14.1805 22.1506C14.4017 22.1506 14.6174 22.1278 14.8258 22.0846L15.5476 21.2469L14.5328 20.3231C14.4158 20.3363 14.2982 20.343 14.1805 20.3431Z" fill="#FFB69F"/>
<path d="M32.5898 18.2704L33.4936 15.8377C33.6023 15.8265 33.7116 15.8209 33.8209 15.8209C35.2411 15.8209 36.4428 16.7564 36.8435 18.0447C36.9359 18.342 36.8479 21.247 33.8209 21.247L33.4694 20.3233L32.5898 18.2704Z" fill="#FFC4AD"/>
<path d="M33.8202 20.3431C35.254 20.3431 36.4644 19.3894 36.8534 18.082C36.9407 18.3753 36.9851 18.6797 36.9851 18.9857C36.9851 20.7336 35.5682 22.1506 33.8202 22.1506C33.599 22.1506 33.3833 22.1278 33.1749 22.0846L32.4531 21.2469L33.468 20.3231C33.5837 20.336 33.7011 20.3431 33.8202 20.3431Z" fill="#FFB69F"/>
<path d="M14.5078 6.09283V18.738C14.5078 23.9801 18.7574 28.2296 23.9994 28.2296C29.2415 28.2296 33.4911 23.9801 33.4911 18.738V6.09283H14.5078Z" fill="#FFE0CC"/>
<path d="M23.9994 27.3258C18.7574 27.3258 14.5078 23.0763 14.5078 17.8342V19.6417C14.5078 24.8838 18.7574 29.1333 23.9994 29.1333C29.2415 29.1333 33.4911 24.8838 33.4911 19.6417V17.8342C33.4911 23.0763 29.2415 27.3258 23.9994 27.3258Z" fill="#FFCEB3"/>
<path d="M33.0563 12.8106C31.3549 11.3598 29.8676 9.75424 29.8676 9.75424C27.1574 11.9326 25.1207 12.1239 25.1207 12.1239L23.1288 10.1802C19.7418 12.7316 15.8307 13.2354 14.7645 13.2088C14.6024 13.2047 14.4416 13.1784 14.2866 13.1308C11.802 12.3703 10.8633 10.8637 10.8633 10.8637C10.8633 10.8637 10.573 10.2038 11.0313 10.1157C13.4305 9.65412 14.2738 8.01012 14.2738 8.01012C11.6035 8.09084 10.7408 6.11112 10.4686 5.02278C10.3847 4.68734 10.653 4.37131 10.9977 4.3984C15.985 4.79093 17.1954 1.71743 21.885 0.332369C26.7721 -1.11101 30.2322 2.61668 30.2322 2.61668C30.2322 2.61668 35.1852 2.13846 35.6101 7.18765C36.0163 12.0136 33.0563 12.8106 33.0563 12.8106Z" fill="#2D4456"/>
<path d="M33.1396 11.9363C31.9423 11.0894 30.8435 9.52232 30.2732 8.62495C30.0854 8.32916 29.6637 8.31735 29.4492 8.59438C27.3972 11.2445 23.125 10.1802 23.125 10.1802C23.125 10.1802 24.1742 11.4648 24.1719 12.9738C24.1714 13.2984 24.4685 13.54 24.7849 13.4679C25.9907 13.193 28.5148 12.3271 29.8638 9.75435C29.8638 9.75435 31.3968 12.5106 33.1385 13.7432C33.2374 13.8133 33.3582 13.8451 33.4788 13.833C33.5993 13.8208 33.7114 13.7654 33.7942 13.677C34.4463 12.9809 35.8933 10.995 35.6136 7.29651C35.4052 9.84848 34.3323 11.2942 33.7954 11.868C33.7129 11.9568 33.6009 12.0126 33.4803 12.0252C33.3597 12.0377 33.2387 12.0062 33.1396 11.9363Z" fill="#253847"/>
<path d="M23.2329 9.58473C23.301 9.11289 22.7355 8.81851 22.3927 9.14973C19.3463 12.0929 15.7481 12.3296 14.7624 12.3051C14.6003 12.3009 14.4395 12.2747 14.2845 12.2271C13.0782 11.8579 11.9114 10.9508 11.0291 10.1149C10.8472 10.1498 10.6638 10.1769 10.4795 10.1962C10.0706 10.239 9.88136 10.7271 10.1576 11.0315C11.0261 11.9884 12.6186 13.5247 14.2845 14.0346C14.44 14.0821 14.6004 14.1085 14.7624 14.1126C15.8287 14.1391 19.9518 13.8599 23.1267 10.1801C23.1733 9.95476 23.2079 9.75742 23.2329 9.58473Z" fill="#253847"/>
<path d="M15.5273 41.0607V46.1925L14.8242 47.0963L14.1211 46.1925V41.0607C14.1211 40.6716 14.4361 40.3575 14.8242 40.3575C15.2133 40.3575 15.5273 40.6716 15.5273 41.0607Z" fill="#4EA1F4"/>
<path d="M14.1211 46.1925H15.5273V48H14.1211V46.1925Z" fill="#3292E0"/>
<path d="M33.8789 41.0607V46.1925L33.1758 47.0963L32.4727 46.1925V41.0607C32.4727 40.6716 32.7877 40.3575 33.1758 40.3575C33.5648 40.3575 33.8789 40.6716 33.8789 41.0607Z" fill="#4EA1F4"/>
<path d="M32.4727 46.1925H33.8789V48H32.4727V46.1925Z" fill="#3292E0"/>
<path d="M24.0006 24.4799C26.6779 24.4799 27.4874 22.5984 27.5227 22.513L27.523 22.5124C27.7363 22.0331 27.3572 21.4548 26.8289 21.4666C26.6799 21.4666 26.5343 21.5108 26.4105 21.5936C26.2866 21.6763 26.1901 21.794 26.1331 21.9316C26.095 22.0122 25.6061 22.9737 24.0007 22.9737C22.3957 22.9737 21.9067 22.0128 21.8684 21.9317C21.8114 21.7941 21.7149 21.6764 21.591 21.5937C21.4672 21.5109 21.3215 21.4667 21.1726 21.4667C20.6443 21.4548 20.2652 22.0333 20.4784 22.5125L20.4787 22.513C20.5139 22.5984 21.3233 24.4799 24.0006 24.4799Z" fill="#FF5876"/>
<path d="M19.4015 15.9714C19.2018 15.9714 19.0102 16.0508 18.869 16.192C18.7278 16.3332 18.6484 16.5248 18.6484 16.7245V18.8525C18.6484 19.0522 18.7278 19.2438 18.869 19.385C19.0102 19.5262 19.2018 19.6056 19.4015 19.6056C19.6013 19.6056 19.7928 19.5262 19.934 19.385C20.0753 19.2438 20.1546 19.0522 20.1546 18.8525V16.7245C20.1546 16.5248 20.0753 16.3332 19.934 16.192C19.7928 16.0508 19.6013 15.9714 19.4015 15.9714ZM28.6001 19.6057C28.7998 19.6057 28.9914 19.5263 29.1326 19.3851C29.2739 19.2439 29.3533 19.0523 29.3533 18.8526V16.7246C29.3533 16.3087 29.0161 15.9715 28.6001 15.9715C28.1841 15.9715 27.847 16.3087 27.847 16.7246V18.8526C27.847 19.0523 27.9263 19.2438 28.0676 19.3851C28.2088 19.5263 28.4004 19.6057 28.6001 19.6057Z" fill="#2D4456"/>
</g>
<defs>
<clipPath id="clip0_16234_4293">
<rect width="48" height="48" fill="white"/>
</clipPath>
</defs>
</svg>
