<svg width="27" height="29" viewBox="0 0 27 29" fill="none" xmlns="http://www.w3.org/2000/svg">
<path d="M9.72583 21.8233C7.89002 21.8133 6.3916 23.3158 6.3916 25.1589C6.3916 26.982 7.87017 28.4846 9.66629 28.4946C11.5021 28.5046 13.0005 27.0021 13.0005 25.1589C13.0005 23.3459 11.5319 21.8433 9.72583 21.8233ZM9.68614 26.2708C9.07089 26.2608 8.57473 25.7399 8.59457 25.1189C8.61442 24.5279 9.11059 24.037 9.70598 24.0471C10.3212 24.0571 10.8174 24.578 10.7975 25.199C10.7777 25.79 10.2716 26.2809 9.68614 26.2708Z" fill="#1D1D1D"/>
<path d="M22.9135 21.8234C21.1075 21.8234 19.619 23.3159 19.619 25.139C19.6091 26.9821 21.1075 28.4947 22.9334 28.4947C24.7394 28.4947 26.2279 27.0021 26.2279 25.1791C26.2379 23.3359 24.7494 21.8234 22.9135 21.8234ZM22.8937 26.2709C22.3082 26.2509 21.822 25.75 21.822 25.159C21.822 24.538 22.3479 24.0371 22.9532 24.0572C23.5387 24.0772 24.025 24.578 24.025 25.169C24.015 25.7801 23.499 26.2909 22.8937 26.2709Z" fill="#1D1D1D"/>
<path d="M10.4104 8.72117C9.74557 8.83136 9.36849 9.32219 9.48757 10.0534C9.73565 11.546 10.0135 13.0285 10.3211 14.511C10.4501 15.132 10.9661 15.4526 11.5417 15.3624C12.147 15.2623 12.4844 14.8315 12.4646 14.0202C12.2264 12.6979 11.9585 11.2054 11.6806 9.72287C11.5417 9.00165 11.0554 8.61099 10.4104 8.72117Z" fill="#FFBB38"/>
<path d="M15.2135 9.84334C15.2036 11.3058 15.2036 12.7583 15.2135 14.2208C15.2234 14.922 15.6402 15.3627 16.2852 15.3727C16.9402 15.3928 17.3966 14.932 17.4165 14.2208C17.4264 13.4995 17.4165 12.7783 17.4165 12.0571C17.4165 11.3158 17.4264 10.5746 17.4165 9.84334C17.3966 9.15217 16.9699 8.72144 16.315 8.72144C15.66 8.72144 15.2234 9.15217 15.2135 9.84334Z" fill="#FFBB38"/>
<path d="M24.3128 15.4926C24.283 15.6629 24.2532 15.8331 24.2334 16.0034C24.2036 16.1737 24.1738 16.354 24.1441 16.5243C24.0151 17.2856 23.6479 17.6062 22.864 17.6062C18.5176 17.6062 14.1612 17.6062 9.81484 17.5961C8.93166 17.5961 8.59427 17.3257 8.42557 16.4342C7.83017 13.2588 7.2447 10.0734 6.63938 6.89799C6.55999 6.49731 6.72869 6.48729 7.03631 6.48729C9.77514 6.49731 12.514 6.48729 15.2429 6.48729C15.5207 6.48729 15.7986 6.48729 16.0764 6.48729C17.1482 5.48559 16.5031 4.59408 16.1757 4.26352C15.9077 4.26352 15.6398 4.26352 15.362 4.26352C12.4842 4.26352 9.60645 4.26352 6.73861 4.26352C6.29206 4.26352 6.06383 4.18339 6.04398 3.69255C6.02413 3.34196 5.93483 3.00138 5.84552 2.6608C5.51805 1.31853 4.68449 0.467083 3.35477 0.126505C2.5609 -0.0738348 1.74719 0.0163179 0.943406 0.0463689C0.387701 0.0664029 -0.0191507 0.60732 0.000695863 1.15825C0.0106192 1.73924 0.447243 2.21004 1.04264 2.24009C1.49911 2.27014 1.96551 2.24009 2.42198 2.25011C3.23569 2.26012 3.59293 2.57065 3.74178 3.36199C4.58526 7.86964 5.41881 12.3773 6.26229 16.8749C6.61953 18.7581 7.85994 19.8099 9.75529 19.8099C11.9384 19.8099 14.1215 19.8099 16.3047 19.8099C18.5076 19.8099 20.7106 19.8099 22.9136 19.8099C24.7295 19.7999 26.0295 18.6579 26.3272 16.8449C26.357 16.6345 26.3967 16.4241 26.4264 16.2138C26.4562 16.0135 26.4959 15.8231 26.5257 15.6228C25.6127 14.561 24.6998 15.142 24.3128 15.4926Z" fill="#1D1D1D"/>
</svg>
