<svg width="22" height="21" viewBox="0 0 22 21" fill="none" xmlns="http://www.w3.org/2000/svg">
<path d="M22 6.19668C21.8793 3.88875 20.9764 2.02199 19.0591 0.772715C17.9777 0.068023 16.7689 -0.121245 15.5088 0.0701829C14.0577 0.2905 12.845 0.990332 11.8258 2.07005C11.5771 2.33357 11.3268 2.59546 11.0861 2.86681C11.008 2.95483 10.9711 2.94187 10.8993 2.86249C10.6295 2.56414 10.3558 2.26904 10.0763 1.98041C9.10659 0.978992 7.96019 0.30373 6.60253 0.0917827C4.41121 -0.250033 2.61877 0.491108 1.27724 2.33654C0.571602 3.30691 0.138128 4.39823 0.0272884 5.61538C-0.0570145 6.54066 0.0582504 7.44569 0.314535 8.33317C0.669695 9.56408 1.25382 10.6767 1.95269 11.7289C2.89431 13.1464 4.01651 14.4005 5.21103 15.5885C6.75916 17.1286 8.44415 18.4972 10.1624 19.824C10.4091 20.0143 10.6607 20.1982 10.9071 20.3891C10.9675 20.4358 11.0091 20.4452 11.076 20.3947C13.4991 18.5636 15.8621 16.6588 17.9288 14.39C19.0427 13.1672 20.0566 11.8661 20.8367 10.3827C21.3526 9.40208 21.7403 8.37367 21.9084 7.26398C21.9618 6.91217 21.9828 6.55794 22 6.19668Z" fill="#EF262C"/>
</svg>
