<svg width="18" height="16" viewBox="0 0 18 16" fill="none" xmlns="http://www.w3.org/2000/svg">
<g opacity="0.3">
<path d="M17.041 4.79984C16.9475 3.01216 16.2482 1.5662 14.763 0.598531C13.9254 0.0526894 12.9891 -0.0939142 12.013 0.0543624C10.8891 0.225017 9.9497 0.767094 9.16028 1.60342C8.96761 1.80754 8.77373 2.0104 8.5873 2.22058C8.52684 2.28876 8.49822 2.27872 8.4426 2.21724C8.2336 1.98614 8.02159 1.75756 7.80513 1.53399C7.054 0.75831 6.16603 0.235264 5.1144 0.0710932C3.41705 -0.193672 2.02865 0.380404 0.989523 1.80984C0.442951 2.56147 0.107189 3.40679 0.0213356 4.34957C-0.0439644 5.06628 0.0453167 5.7673 0.243832 6.45473C0.518932 7.40817 0.971384 8.27002 1.51272 9.08502C2.24208 10.183 3.11131 11.1544 4.03658 12.0746C5.23573 13.2675 6.54089 14.3276 7.87184 15.3553C8.0629 15.5027 8.25779 15.6452 8.44865 15.793C8.4954 15.8292 8.52765 15.8365 8.57944 15.7974C10.4564 14.3791 12.2867 12.9036 13.8876 11.1462C14.7503 10.1991 15.5357 9.19126 16.1399 8.04227C16.5396 7.28269 16.8399 6.4861 16.9701 5.62655C17.0114 5.35405 17.0277 5.07966 17.041 4.79984Z" fill="#797979"/>
</g>
</svg>
