<svg width="28" height="28" viewBox="0 0 28 28" fill="none" xmlns="http://www.w3.org/2000/svg">
<path d="M14 5.95752C14.5619 5.95718 15.1487 6.15414 15.7568 6.59131C18.4995 8.56143 21.2495 10.5578 23.9961 12.5278C24.8896 13.1686 25.3103 13.9941 25.3066 15.0952C25.2957 18.2256 25.305 21.3618 25.3018 24.4897C25.3008 25.406 24.9925 26.1417 24.4902 26.647C23.9881 27.1519 23.2576 27.4623 22.3477 27.4644C20.3811 27.4687 18.4139 27.4665 16.4463 27.4644C16.0099 27.4639 15.8376 27.3737 15.7607 27.2964C15.6831 27.2183 15.5933 27.0433 15.5928 26.604C15.5917 25.2964 15.5951 23.9818 15.5918 22.6714C15.5904 22.2035 15.4631 21.7684 15.1836 21.4399C14.9334 21.146 14.5912 20.9739 14.2061 20.9282L14.0381 20.9165C13.5692 20.9059 13.1441 21.0734 12.8418 21.4126C12.5465 21.744 12.4106 22.1909 12.4092 22.6733C12.407 23.3477 12.4077 24.0225 12.4082 24.6958L12.4062 26.7144C12.4049 27.0448 12.3211 27.2091 12.2373 27.2935C12.1539 27.3772 11.9912 27.4624 11.6611 27.4634C9.60158 27.4688 7.54616 27.4778 5.49121 27.4614C3.91994 27.4493 2.71247 26.2332 2.7002 24.6489C2.68818 23.0293 2.69727 21.414 2.69727 19.7905C2.69727 18.2087 2.70176 16.6224 2.69629 15.0376C2.69253 13.9818 3.10555 13.176 3.96289 12.5581L3.96387 12.5591C6.7268 10.5699 9.48306 8.57869 12.2461 6.59131C12.8523 6.15559 13.4381 5.95787 14 5.95752ZM14.0117 7.15674C13.608 7.15348 13.259 7.33793 12.9277 7.57568C10.1774 9.55429 7.43726 11.5371 4.6875 13.5112H4.68652C4.4311 13.6948 4.22479 13.9173 4.08594 14.1909C3.94719 14.4644 3.88994 14.7619 3.89062 15.0747C3.89828 18.2247 3.89113 21.3694 3.89551 24.522C3.89616 25.0139 4.02452 25.4725 4.35938 25.8052C4.65139 26.0951 5.03901 26.2283 5.45996 26.2593L5.64258 26.2661C7.2037 26.276 8.73679 26.2603 10.2822 26.2876C10.5005 26.2913 10.8265 26.2649 11.0439 25.9966C11.1876 25.8193 11.2198 25.6049 11.2256 25.4458V25.3091C11.2158 24.8496 11.2128 24.3895 11.2129 23.9282L11.2207 22.5396C11.2349 20.947 12.4605 19.7262 14.001 19.7271C15.5406 19.728 16.7613 20.9445 16.7764 22.5454C16.7851 23.4741 16.7922 24.3954 16.7705 25.314V25.3149C16.7669 25.4786 16.7667 25.7832 16.9727 26.0171C17.1393 26.2062 17.3608 26.2654 17.5479 26.2817L17.7197 26.2866C19.2464 26.2637 20.7638 26.2803 22.3047 26.2759C22.818 26.2746 23.2993 26.1593 23.6465 25.8159C23.9945 25.4716 24.1119 24.9928 24.1133 24.4819C24.1198 22.9176 24.1172 21.3493 24.1172 19.7856C24.1172 18.2162 24.1068 16.6552 24.1221 15.0933L24.1211 15.0923C24.1243 14.764 24.0643 14.4562 23.9189 14.1753C23.81 13.965 23.6622 13.7855 23.4854 13.6304L23.2988 13.4829C20.5627 11.5222 17.833 9.55429 15.0977 7.58936C14.7627 7.34872 14.4128 7.16012 14.0117 7.15674Z" fill="#FFBB38" stroke="#FFBB38"/>
<path d="M14.0114 0C14.7802 0.0273252 15.4462 0.280903 16.0543 0.718106C19.3058 3.05386 22.5595 5.38415 25.8132 7.71663C26.3753 8.11995 26.9429 8.51453 27.4952 8.92987C28.0552 9.35068 28.1525 9.93981 27.7709 10.4502C27.3629 10.9957 26.7581 11.0929 26.1905 10.6852C22.5518 8.07842 18.9154 5.46941 15.2778 2.8604C15.1302 2.75438 14.9825 2.64726 14.8327 2.54452C14.1481 2.07562 13.8396 2.06797 13.1517 2.55873C10.5597 4.4081 7.97318 6.26512 5.38555 8.11995C4.18798 8.97905 2.99478 9.84362 1.79393 10.6973C1.25038 11.0842 0.609483 10.9935 0.244196 10.4972C-0.154995 9.95511 -0.0631263 9.33756 0.507771 8.92768C4.36516 6.158 8.22692 3.39379 12.0876 0.628479C12.6683 0.213136 13.3191 0.0196741 14.0114 0Z" fill="black"/>
<path d="M13.2326 7L3.51163 14L3 19.5L3.51163 26L5.04651 27H8.94767L11.6977 26V23L12.2093 21.5L13.7442 20.5L15.7907 21L16.3023 22V23V25.5L16.814 26.5L17.3256 27L24.4884 26.5L25 25V14L22.4419 12C21.4186 11.6667 19.0651 10.6 17.8372 9C16.6093 7.4 14.2558 7 13.2326 7Z" fill="#FFBB38" stroke="#FFBB38"/>
</svg>
