<svg width="29" height="29" viewBox="0 0 29 29" fill="none" xmlns="http://www.w3.org/2000/svg">
<path d="M0.00171581 20.2084C0.00171581 18.4168 -0.00281585 16.624 0.0028501 14.8324C0.0130488 11.555 2.49247 9.08498 5.78212 9.07932C8.57656 9.07366 11.3699 9.07366 14.1643 9.07932C17.4517 9.08612 19.947 11.5572 19.9334 14.8358C19.9266 16.4927 20.0977 18.1608 19.8337 19.8064C19.4076 22.4677 17.0676 24.4428 14.3649 24.4689C12.5722 24.487 10.7784 24.4847 8.98451 24.4632C8.61849 24.4587 8.40091 24.5765 8.19353 24.8652C7.53175 25.7826 6.84731 26.684 6.1606 27.5832C5.33564 28.6625 4.23645 29.1551 2.89135 28.957C1.43747 28.7429 0.572846 27.7916 0.0606439 26.4813C-0.0118803 26.2967 0.0051187 26.0736 0.0051187 25.8675C-0.000547253 23.9808 0.00171581 22.094 0.00171581 20.2084ZM5.89771 11.3658C4.06194 11.2515 2.35648 12.5504 2.31116 14.3647C2.21484 18.1461 2.26923 21.9332 2.28396 25.7169C2.28623 26.1846 2.59672 26.5142 3.04773 26.6716C3.50667 26.8313 3.90555 26.701 4.22964 26.3613C4.38375 26.2005 4.49708 26.0034 4.62966 25.8222C5.38096 24.8324 6.1436 23.8505 6.8779 22.8494C7.20879 22.3987 7.60768 22.1959 8.17088 22.2005C10.2265 22.2186 12.2821 22.222 14.3366 22.2027C16.1349 22.1846 17.6285 20.7271 17.6659 18.9445C17.6965 17.4938 17.6965 16.0419 17.6647 14.5923C17.6285 12.9049 16.2313 11.3975 14.5507 11.3658C11.6668 11.3115 8.78167 11.3602 5.89771 11.3658Z" fill="#1D1D1D"/>
<path d="M29.0011 11.4327C29.0022 13.2991 28.9988 15.1654 29.0022 17.0329C29.0045 18.4995 28.2543 19.5007 26.9806 20.0862C25.657 20.6943 24.4026 20.4554 23.3023 19.4995C22.9159 19.1632 22.6246 18.7374 22.3538 18.3081C22.0388 17.8076 22.1849 17.2153 22.6677 16.8585C23.1459 16.5052 23.7487 16.5437 24.1488 16.9763C24.3403 17.1824 24.4966 17.4214 24.6723 17.6434C25.0111 18.0703 25.4349 18.2504 25.9687 18.059C26.4933 17.8699 26.7336 17.4791 26.7336 16.9299C26.7336 14.931 26.7336 12.9333 26.7336 10.9344C26.7336 9.21869 26.7381 7.50295 26.7324 5.78722C26.7256 3.76344 25.2582 2.29459 23.2331 2.29006C20.271 2.28439 17.3088 2.28326 14.3455 2.29006C12.4259 2.29459 10.9777 3.68077 10.8757 5.59016C10.8349 6.3546 10.3578 6.84611 9.68926 6.81439C9.02181 6.78268 8.59913 6.2606 8.6116 5.48484C8.65919 2.61848 11.1126 0.0873452 13.9988 0.0397802C17.2057 -0.0123148 20.4149 -0.0145798 23.6207 0.0409127C26.533 0.0918752 28.9569 2.61622 28.9943 5.55166C29.0203 7.51088 29.0011 9.47124 29.0011 11.4327Z" fill="#1D1D1D"/>
<path d="M4.53906 17.1056C4.53906 16.8847 4.53906 16.6649 4.53906 16.444C4.98224 15.7519 5.45036 15.5073 5.99781 15.6976C6.51806 15.8788 6.80481 16.2549 6.79234 16.802C6.77987 17.3514 6.47158 17.7252 5.94453 17.8645C5.43902 17.9982 5.02192 17.8192 4.72269 17.3854C4.65809 17.2947 4.59913 17.1996 4.53906 17.1056Z" fill="#FFBB38"/>
<path d="M9.98726 17.9065C9.36274 17.9167 8.83115 17.3889 8.83796 16.7647C8.84362 16.1632 9.35026 15.6535 9.95212 15.6444C10.5766 15.6342 11.1082 16.1621 11.1014 16.7862C11.0969 17.3877 10.5903 17.8975 9.98726 17.9065Z" fill="#FFBB38"/>
<path d="M15.408 16.766C15.4136 17.3902 14.8798 17.9181 14.2564 17.9067C13.6545 17.8965 13.1479 17.3857 13.1434 16.7842C13.1377 16.16 13.6704 15.6322 14.2949 15.6435C14.8968 15.6548 15.4023 16.1646 15.408 16.766Z" fill="#FFBB38"/>
</svg>
