<svg width="28" height="28" viewBox="0 0 28 28" fill="none" xmlns="http://www.w3.org/2000/svg">
<path d="M14.0102 1.31527e-06C21.8606 0.00218823 28.0084 6.15834 28.0019 14.0115C27.9953 21.8527 21.8277 27.9914 13.9665 27.9804C6.12272 27.9695 -0.0120177 21.8035 1.7678e-05 13.9405C0.0131471 6.12991 6.17634 -0.00327905 14.0102 1.31527e-06ZM13.9851 2.18691C7.39846 2.19457 2.20139 7.39941 2.20029 13.9875C2.1992 20.5974 7.42473 25.8088 14.0365 25.7924C20.6373 25.7771 25.8136 20.5898 25.8136 13.9908C25.8136 7.3688 20.6133 2.17926 13.9851 2.18691Z" fill="#1D1D1D"/>
<path d="M13.0567 15.1006C12.7351 14.8371 12.3138 14.8338 11.9473 14.684C9.735 13.7819 8.32138 11.4911 8.54458 9.11722C8.77216 6.69412 10.6256 4.67561 13.0141 4.25353C15.9835 3.72758 18.8392 5.66081 19.3633 8.55191C19.9191 11.6212 18.0361 14.3877 14.9879 14.9858C14.9025 15.0022 14.8227 15.0514 14.7406 15.0853C14.1793 15.0897 13.618 15.0951 13.0567 15.1006ZM14.0043 12.8962C15.7953 12.8962 17.2735 11.4299 17.2833 9.64427C17.2932 7.82694 15.8161 6.33984 14.0021 6.33984C12.211 6.33984 10.7328 7.80617 10.723 9.59178C10.712 11.4091 12.1891 12.8962 14.0043 12.8962Z" fill="#FFBB38"/>
<path d="M13.0559 15.1006C13.6172 15.0952 14.1785 15.0908 14.7387 15.0853C16.3952 15.327 17.8919 15.9218 19.1436 17.0656C19.9335 17.7873 20.5517 18.6314 20.9894 19.6057C21.3275 20.358 21.1393 21.0108 20.52 21.2732C19.9051 21.5334 19.3515 21.259 19.0025 20.5198C17.4729 17.2821 13.5734 16.2597 10.7331 18.3537C9.92343 18.9507 9.34792 19.7281 8.9431 20.6477C8.69802 21.2054 8.26256 21.4219 7.7155 21.3311C7.23737 21.2513 6.87521 20.8566 6.82598 20.3591C6.79753 20.0748 6.90475 19.82 7.02401 19.5772C8.23958 17.1082 10.1652 15.5872 12.9224 15.1816C12.9706 15.175 13.0121 15.128 13.0559 15.1006Z" fill="#1D1D1D"/>
</svg>
