<svg width="18" height="16" viewBox="0 0 18 16" fill="none" xmlns="http://www.w3.org/2000/svg">
<path d="M14.5477 2.90837C14.9612 2.90837 15.3631 2.90837 15.7655 2.90837C16.277 2.90837 16.789 2.91321 17.3005 2.90655C17.7012 2.9011 18.0028 2.5741 17.997 2.16959C17.9913 1.77356 17.6937 1.45988 17.2999 1.45685C16.4638 1.4514 15.6277 1.45504 14.7922 1.45504C14.7138 1.45504 14.636 1.45504 14.5477 1.45504C14.5178 1.0693 14.4088 0.732002 14.1585 0.459501C13.891 0.167623 13.5641 0.010179 13.1783 0.00351787C12.7747 -0.00314324 12.371 0.0017012 11.9674 0.0017012C11.0103 0.0017012 10.5149 0.446179 10.3679 1.45504C10.286 1.45504 10.2013 1.45504 10.1159 1.45504C7.02415 1.45504 3.93295 1.45504 0.841171 1.45564C0.754681 1.45564 0.667034 1.4508 0.582273 1.46533C0.235155 1.52407 -0.0174007 1.86076 0.00393486 2.22712C0.0246925 2.585 0.300888 2.87809 0.646278 2.90595C0.725273 2.912 0.804844 2.90837 0.883841 2.90837C3.9612 2.90837 7.03799 2.90837 10.1154 2.90837C10.2007 2.90837 10.2855 2.90837 10.3673 2.90837C10.4913 3.74404 10.8678 4.25331 11.5378 4.32537C12.1502 4.39138 12.7793 4.39077 13.3911 4.32355C14.0582 4.24968 14.4601 3.7077 14.5477 2.90837Z" fill="#797979"/>
<path d="M9.01032 7.26901C8.90711 6.3201 8.36855 5.81628 7.48922 5.81567C7.13634 5.81567 6.78288 5.81567 6.42999 5.81567C5.4734 5.81567 4.97867 6.25955 4.83048 7.26901C4.7561 7.26901 4.67826 7.26901 4.60041 7.26901C3.31054 7.26901 2.02067 7.26598 0.730791 7.27022C0.169174 7.27204 -0.173908 7.85216 0.0913315 8.34448C0.236061 8.61274 0.464973 8.72476 0.757315 8.72355C2.03277 8.72053 3.30823 8.72234 4.58427 8.72234C4.66269 8.72234 4.74111 8.72234 4.82933 8.72234C4.84893 8.83376 4.86392 8.9355 4.88468 9.03602C5.02018 9.68094 5.55066 10.1557 6.17628 10.1714C6.67332 10.1842 7.17094 10.1848 7.66797 10.1714C8.39335 10.1521 8.91287 9.59192 9.01147 8.72174C9.0922 8.72174 9.17696 8.72174 9.26114 8.72174C11.9205 8.72174 14.5798 8.72234 17.2385 8.72113C17.7852 8.72113 18.1328 8.23669 17.9518 7.7365C17.844 7.43917 17.5954 7.26901 17.2547 7.26901C16.0438 7.2678 14.8335 7.2684 13.6226 7.2684C12.1667 7.2684 10.7113 7.2684 9.25538 7.2684C9.17638 7.26901 9.09796 7.26901 9.01032 7.26901Z" fill="#797979"/>
<path d="M10.374 14.5369C10.4784 15.4852 11.0169 15.9896 11.8951 15.9902C12.2411 15.9908 12.5888 15.9684 12.9324 15.995C13.7039 16.055 14.4477 15.6038 14.5544 14.5369C14.6299 14.5369 14.7072 14.5369 14.7851 14.5369C15.5992 14.5369 16.414 14.5381 17.2281 14.5363C17.6848 14.5356 17.9991 14.2347 17.9973 13.8053C17.995 13.376 17.6831 13.0841 17.2212 13.0829C16.3494 13.0811 15.4776 13.0811 14.6052 13.0799C14.5913 13.0799 14.5781 13.0726 14.5561 13.0672C14.5296 12.9327 14.5123 12.7917 14.4743 12.6572C14.3036 12.0614 13.7812 11.6435 13.1855 11.6314C12.7606 11.6229 12.335 11.629 11.9101 11.629C11.0123 11.629 10.4836 12.1213 10.3734 13.0823C10.2921 13.0823 10.2079 13.0823 10.1238 13.0823C7.00315 13.0823 3.88312 13.0817 0.762514 13.0829C0.216467 13.0829 -0.132381 13.568 0.0486736 14.0669C0.153616 14.3552 0.404442 14.5332 0.725035 14.535C1.30164 14.5381 1.87825 14.5363 2.45486 14.5363C5.00578 14.5363 7.55727 14.5363 10.1082 14.5363C10.1929 14.5369 10.2783 14.5369 10.374 14.5369Z" fill="#797979"/>
</svg>
