<svg width="28" height="28" viewBox="0 0 28 28" fill="none" xmlns="http://www.w3.org/2000/svg">
<path d="M13.9669 27.9844C11.178 27.9844 8.38907 27.9877 5.60125 27.9833C1.83091 27.9778 -0.710735 24.7445 0.177691 21.0694C1.59458 15.2041 3.01912 9.3399 4.45023 3.47788C4.98416 1.29206 6.63301 0.0072528 8.87376 0.00397244C12.3006 -0.000401384 15.7273 -0.00258723 19.1541 0.00506696C21.2942 0.0105342 22.9792 1.31503 23.4869 3.38931C24.9442 9.3388 26.4016 15.2883 27.825 21.2454C28.6522 24.7062 26.0569 27.9647 22.4978 27.98C19.6541 27.9953 16.8105 27.9844 13.9669 27.9844ZM13.9746 25.7887C13.9746 25.792 13.9746 25.7953 13.9746 25.7986C16.7624 25.7986 19.5502 25.8019 22.338 25.7975C24.6576 25.7942 26.2068 23.92 25.6729 21.6817C24.2593 15.7618 22.8151 9.84835 21.3708 3.93604C21.094 2.80213 20.2811 2.19307 19.1082 2.19198C15.6825 2.19088 12.2579 2.19416 8.8322 2.20182C7.68446 2.20401 6.87919 2.80431 6.60675 3.91745C5.15594 9.84616 3.70404 15.7749 2.28934 21.7123C1.76745 23.9025 3.29812 25.7734 5.55748 25.7855C8.36281 25.7997 11.1692 25.7887 13.9746 25.7887Z" fill="#1D1D1D"/>
<path d="M19.4448 6.99135C19.5356 8.25867 19.2927 9.6222 18.4185 10.8403C17.1701 12.5811 14.9337 13.4613 12.8385 13.0032C10.6623 12.5264 8.99045 10.8009 8.60751 8.64903C8.41385 7.56322 8.52654 6.46977 8.51888 5.38069C8.5156 4.81428 9.055 4.37143 9.613 4.3769C10.2038 4.38346 10.6721 4.83177 10.6907 5.45832C10.7115 6.16798 10.694 6.87872 10.6973 7.58837C10.7071 9.47786 12.1568 10.9431 14.0048 10.9322C15.821 10.9223 17.2478 9.45709 17.2576 7.58837C17.2609 6.9148 17.2511 6.24124 17.2598 5.56767C17.2697 4.85255 17.7029 4.38345 18.3408 4.3758C18.9798 4.36924 19.4284 4.83724 19.4437 5.5447C19.4524 5.96459 19.4448 6.38339 19.4448 6.99135Z" fill="#FFBB38"/>
</svg>
